<?xml version="1.0" encoding="utf-8"?>
<!-- Generator: Adobe Illustrator 16.0.3, SVG Export Plug-In . SVG Version: 6.00 Build 0)  -->
<!DOCTYPE svg PUBLIC "-//W3C//DTD SVG 1.1//EN" "http://www.w3.org/Graphics/SVG/1.1/DTD/svg11.dtd">
<svg version="1.1" id="レイヤー_1" xmlns="http://www.w3.org/2000/svg" xmlns:xlink="http://www.w3.org/1999/xlink" x="0px"
	 y="0px" width="123px" height="45px" viewBox="0 0 123 45" enable-background="new 0 0 123 45" xml:space="preserve">
<rect x="1.7" y="26.483" fill="#FFFFFF" width="117.675" height="11.033"/>
<g transform="translate(0.000000,45.000000) scale(0.100000,-0.100000)">
	<path fill="#0066FF" d="M431.001,435c-55-25-82.002-75-41.001-75c31.001,0,85-25,108.999-51.001
		c15-16.001,21.001-36.001,21.001-66.997c0-37.002-6.001-50-33.999-77.998C457.002,135,445,130,407.002,130
		c-25,0-83.003,12.002-128.003,25.996c-92.998,29.004-132.998,28.008-201.997-5C52.998,139.004,26.001,130,17.002,130
		C7.998,130,0,122.998,0,115c0-20,9.375-25.312,103.999,10.996l78.999,27.002L275,125.996
		c146.001-41.992,211.001-31.992,253.999,37.002c25,41.006,27.002,106.001,5,148.003C515,348.999,522.002,357.998,556.001,340
		c32.998-17.998,71.001-82.998,79.995-137.998c9.004-54.004,20-61.006,28.008-17.002c7.998,38.999-13.008,97.002-47.002,132.998
		C591.001,347.002,507.998,390,481.001,390c-35,0-33.003,18.999,1.997,25c48.003,8.999,80-7.002,252.002-128.999
		c82.998-58.003,184.004-123.003,224.004-143.999c68.994-34.004,82.998-37.002,172.998-40C1215,99.004,1230,100.996,1230,115
		c0,12.002-15,15-82.998,15c-49.004,0-102.002,5.996-127.998,15C995,154.004,895,215.996,797.998,285
		C700.996,352.998,607.002,416.001,590,425C543.999,448.999,471.001,452.998,431.001,435z"/>
</g>
<path fill="#FFFFFF" d="M1.7,34.813"/>
</svg>
